<svg width="44" height="62" viewBox="0 0 44 62" fill="none" xmlns="http://www.w3.org/2000/svg">
<rect x="0.5" y="0.5" width="43" height="43" rx="21.5" fill="white"/>
<path d="M18 16.5L18 27.5" stroke="black" stroke-width="2" stroke-linecap="round"/>
<path d="M26 16.5L26 27.5" stroke="black" stroke-width="2" stroke-linecap="round"/>
<rect x="0.5" y="0.5" width="43" height="43" rx="21.5" stroke="white"/>
<path d="M8.224 51.08C8.792 51.08 9.28 51.18 9.688 51.38C10.104 51.58 10.428 51.864 10.66 52.232C10.892 52.6 11.008 53.044 11.008 53.564C11.008 54.076 10.892 54.52 10.66 54.896C10.428 55.264 10.104 55.548 9.688 55.748C9.28 55.948 8.792 56.048 8.224 56.048H6.46V59H5.176V51.08H8.224ZM8.02 54.944C8.588 54.944 9.004 54.828 9.268 54.596C9.54 54.356 9.676 54.012 9.676 53.564C9.676 53.108 9.54 52.764 9.268 52.532C9.004 52.292 8.588 52.172 8.02 52.172H6.46V54.944H8.02ZM15.9874 55.148C15.9874 54.748 15.8754 54.44 15.6514 54.224C15.4354 54 15.1354 53.888 14.7514 53.888C14.3914 53.888 14.0834 53.972 13.8274 54.14C13.5714 54.308 13.3834 54.58 13.2634 54.956L12.1834 54.5C12.3354 54.012 12.6314 53.62 13.0714 53.324C13.5194 53.028 14.0954 52.88 14.7994 52.88C15.2794 52.88 15.7034 52.96 16.0714 53.12C16.4394 53.272 16.7274 53.504 16.9354 53.816C17.1514 54.128 17.2594 54.528 17.2594 55.016V57.692C17.2594 57.988 17.4074 58.136 17.7034 58.136C17.8474 58.136 17.9874 58.116 18.1234 58.076L18.0514 58.964C17.8674 59.052 17.6354 59.096 17.3554 59.096C17.0994 59.096 16.8674 59.052 16.6594 58.964C16.4594 58.868 16.2994 58.728 16.1794 58.544C16.0674 58.352 16.0114 58.116 16.0114 57.836V57.752L16.2754 57.74C16.2034 58.052 16.0554 58.312 15.8314 58.52C15.6074 58.72 15.3474 58.872 15.0514 58.976C14.7554 59.072 14.4554 59.12 14.1514 59.12C13.7754 59.12 13.4354 59.06 13.1314 58.94C12.8354 58.82 12.5994 58.64 12.4234 58.4C12.2554 58.152 12.1714 57.848 12.1714 57.488C12.1714 57.04 12.3154 56.672 12.6034 56.384C12.8994 56.096 13.3154 55.9 13.8514 55.796L16.1794 55.34L16.1674 56.24L14.4754 56.588C14.1394 56.652 13.8874 56.744 13.7194 56.864C13.5514 56.984 13.4674 57.16 13.4674 57.392C13.4674 57.616 13.5514 57.796 13.7194 57.932C13.8954 58.06 14.1274 58.124 14.4154 58.124C14.6154 58.124 14.8074 58.1 14.9914 58.052C15.1834 58.004 15.3554 57.928 15.5074 57.824C15.6594 57.712 15.7754 57.572 15.8554 57.404C15.9434 57.228 15.9874 57.02 15.9874 56.78V55.148ZM21.4992 59.12C21.1072 59.12 20.7432 59.048 20.4072 58.904C20.0792 58.76 19.8152 58.528 19.6152 58.208C19.4152 57.888 19.3152 57.472 19.3152 56.96V53H20.5992V56.636C20.5992 57.18 20.7152 57.556 20.9472 57.764C21.1792 57.964 21.5032 58.064 21.9192 58.064C22.1192 58.064 22.3112 58.032 22.4952 57.968C22.6872 57.896 22.8592 57.788 23.0112 57.644C23.1632 57.492 23.2792 57.3 23.3592 57.068C23.4472 56.836 23.4912 56.564 23.4912 56.252V53H24.7752V59H23.6472L23.5872 58.028C23.3792 58.404 23.0992 58.68 22.7472 58.856C22.3952 59.032 21.9792 59.12 21.4992 59.12ZM29.0612 59.12C28.4612 59.12 27.9132 59.004 27.4172 58.772C26.9212 58.54 26.5292 58.212 26.2412 57.788L27.1292 57.02C27.3052 57.348 27.5572 57.612 27.8852 57.812C28.2212 58.004 28.6212 58.1 29.0852 58.1C29.4532 58.1 29.7452 58.036 29.9612 57.908C30.1772 57.78 30.2852 57.6 30.2852 57.368C30.2852 57.216 30.2332 57.084 30.1292 56.972C30.0332 56.852 29.8452 56.76 29.5652 56.696L28.3052 56.432C27.6652 56.304 27.2092 56.1 26.9372 55.82C26.6652 55.532 26.5292 55.168 26.5292 54.728C26.5292 54.4 26.6252 54.096 26.8172 53.816C27.0092 53.536 27.2892 53.312 27.6572 53.144C28.0332 52.968 28.4812 52.88 29.0012 52.88C29.6012 52.88 30.1132 52.988 30.5372 53.204C30.9612 53.412 31.2852 53.712 31.5092 54.104L30.6212 54.848C30.4692 54.528 30.2452 54.292 29.9492 54.14C29.6532 53.98 29.3452 53.9 29.0252 53.9C28.7692 53.9 28.5492 53.932 28.3652 53.996C28.1812 54.06 28.0412 54.148 27.9452 54.26C27.8492 54.372 27.8012 54.504 27.8012 54.656C27.8012 54.816 27.8612 54.956 27.9812 55.076C28.1012 55.196 28.3172 55.288 28.6292 55.352L29.9972 55.64C30.5732 55.752 30.9772 55.944 31.2092 56.216C31.4492 56.48 31.5692 56.804 31.5692 57.188C31.5692 57.572 31.4692 57.912 31.2692 58.208C31.0692 58.496 30.7812 58.72 30.4052 58.88C30.0292 59.04 29.5812 59.12 29.0612 59.12ZM35.761 59.12C35.161 59.12 34.633 58.996 34.177 58.748C33.721 58.5 33.365 58.144 33.109 57.68C32.861 57.208 32.737 56.648 32.737 56C32.737 55.352 32.861 54.796 33.109 54.332C33.365 53.86 33.717 53.5 34.165 53.252C34.613 53.004 35.121 52.88 35.689 52.88C36.273 52.88 36.769 53 37.177 53.24C37.585 53.48 37.897 53.808 38.113 54.224C38.329 54.64 38.437 55.112 38.437 55.64C38.437 55.784 38.433 55.92 38.425 56.048C38.417 56.176 38.405 56.288 38.389 56.384H33.565V55.4H37.825L37.189 55.592C37.189 55.048 37.053 54.632 36.781 54.344C36.509 54.048 36.137 53.9 35.665 53.9C35.321 53.9 35.021 53.98 34.765 54.14C34.509 54.3 34.313 54.54 34.177 54.86C34.041 55.172 33.973 55.556 33.973 56.012C33.973 56.46 34.045 56.84 34.189 57.152C34.333 57.464 34.537 57.7 34.801 57.86C35.065 58.02 35.377 58.1 35.737 58.1C36.137 58.1 36.461 58.024 36.709 57.872C36.957 57.72 37.153 57.508 37.297 57.236L38.317 57.716C38.173 58.004 37.977 58.256 37.729 58.472C37.489 58.68 37.201 58.84 36.865 58.952C36.529 59.064 36.161 59.12 35.761 59.12Z" fill="white"/>
</svg>
